<svg height="142" viewBox="0 0 163 142" width="163" xmlns="http://www.w3.org/2000/svg"><g fill="none" transform="translate(.03 .874)"><path d="m81.4690353.126c-35.0701448 0-63.4990353 21.2014097-63.4990353 47.3513656 0 19.6895155 16.116908 36.5703965 39.0448641 43.7150661l-12.8271524 18.9335683h18.0174412s5.29641-6.477885 12.7113839-15.5434361c2.155224.166696 4.3393902.250044 6.5524985.250044 35.0701447 0 63.5009647-21.2014097 63.5009647-47.3552423 0-26.1499559-28.43082-47.3513656-63.5009647-47.3513656zm43.2491907 47.3494273c0 20.5481938-19.200209 37.5143612-44.053782 40.0787665 11.8662737-14.4967401 26.509062-32.375859 34.524103-42.1062555 3.56953-4.3340969 3.141186-7.1311013 3.141186-7.1311013 0-5.0105727-4.034533-9.0713656-9.016438-9.0868722-.007718 0-.017366-.0038767-.028942-.0038767-.009648 0-.017366.0038767-.025084.0038767h-69.5537287l-12.2502393 18.2183259h59.1943757l-26.3817171 38.9429075c-21.4229653-4.739207-37.4974248-20.1799119-37.4974248-38.6831718v-.4613216c0-22.3217621 23.3891007-40.18343608 51.3414108-40.18343608 27.9503804 0 50.6062804 18.09621148 50.6062804 40.41215858z" fill="#d71920"/><g fill="#000"><path d="m16.396074 117.126h8.6155535l-10.640091 10.889844 11.5984635 12.110156h-9.0094857l-8.96832866-9.974116h-.0725149v9.974116h-6.94967074v-23h6.94967074v9.487574h.0725149z"/><path d="m44.3142979 131.552176h-5.5863375l2.7761257-7.317912h.0681723zm1.8160331 4.576662 1.6796886 3.997162h7.1599804l-9.7315893-23h-7.3323047l-9.936106 23h7.1296816l1.7781596-3.997162z"/><path d="m57.97 117.126h7.0259855l12.8746972 14.066214h.0733318v-14.066214h7.0259855v23h-7.0259855l-12.8766791-14.091925h-.0713499v14.091925h-7.0259855z"/><path d="m102.315045 131.552176h-5.5859455l2.7778245-7.317912h.066274zm1.815906 4.576662 1.679571 3.997162h7.159478l-9.730907-23h-7.3317902l-9.9373028 23h7.1291816l1.7780349-3.997162z"/><path d="m123.792903 135.064774h8.177097v5.061226h-15v-23h6.822903z"/><path d="m140.001812 122.191182v-5.065182h21.968188l-15.365373 23h-7.634627l12.209126-17.934818z"/></g></g></svg>