<?xml version="1.0" encoding="UTF-8"?>
<svg width="133px" height="124px" viewBox="0 0 133 124" version="1.1" xmlns="http://www.w3.org/2000/svg" xmlns:xlink="http://www.w3.org/1999/xlink">
    <title>Z3-Logo</title>
    <defs>
        <path d="M14.035,0.543 L0.817,14.834 L40.282,14.834 L22.038,34.426 C22.038,34.426 32.561,33.903 40.572,36.029 C41.108,36.164 41.634,36.323 42.154,36.497 C42.247,36.528 42.339,36.56 42.43,36.591 C42.543,36.632 42.659,36.669 42.771,36.712 C43.13,36.84 43.486,36.974 43.827,37.117 C43.993,37.187 44.149,37.266 44.297,37.35 C52.106,40.963 57.362,49.153 56.613,58.481 C55.774,68.923 47.233,77.322 36.781,78.005 C28.269,78.561 20.747,74.119 16.845,67.332 C12.119,67.364 6.264,67.345 0.678,67.307 C5.475,83.029 20.665,94.216 38.246,92.85 C56.142,91.46 70.461,76.852 71.528,58.933 C72.436,43.641 63.859,30.246 51.128,24.079 L68.808,5.103 L72.158,1.509 L72.134,1.509 L73.027,0.543 L14.035,0.543 Z" id="path-1"></path>
        <linearGradient x1="46.1254242%" y1="44.003902%" x2="50.2102125%" y2="50.3389428%" id="linearGradient-3">
            <stop stop-color="#004683" offset="0%"></stop>
            <stop stop-color="#004683" offset="31.74%"></stop>
            <stop stop-color="#007EBD" offset="100%"></stop>
        </linearGradient>
        <polygon id="path-4" points="14.134 0.671 0.917 14.96 59.913 14.96 73.126 0.671"></polygon>
        <linearGradient x1="18.5263877%" y1="32.3132015%" x2="59.9146125%" y2="55.6148498%" id="linearGradient-6">
            <stop stop-color="#0056A4" offset="0%"></stop>
            <stop stop-color="#0074AC" offset="28.97%"></stop>
            <stop stop-color="#007EB8" offset="53.96%"></stop>
            <stop stop-color="#0095DA" offset="99.86%"></stop>
            <stop stop-color="#0095DA" offset="100%"></stop>
        </linearGradient>
        <polygon id="path-7" points="13.967 0.543 0.748 14.834 59.743 14.834 72.956 0.543"></polygon>
        <linearGradient x1="44.1603731%" y1="38.8246499%" x2="56.4790304%" y2="62.5992108%" id="linearGradient-9">
            <stop stop-color="#00487C" offset="0%"></stop>
            <stop stop-color="#00487C" offset="20.28%"></stop>
            <stop stop-color="#008AD0" offset="77.48%"></stop>
            <stop stop-color="#008AD0" offset="100%"></stop>
        </linearGradient>
        <polygon id="path-10" points="14.025 0.108 0.807 14.397 59.803 14.397 73.017 0.108"></polygon>
        <linearGradient x1="45.8793265%" y1="44.2809017%" x2="53.4989476%" y2="54.9199722%" id="linearGradient-12">
            <stop stop-color="#005085" offset="0%"></stop>
            <stop stop-color="#005085" offset="20%"></stop>
            <stop stop-color="#0077C0" offset="60.65%"></stop>
            <stop stop-color="#0088C3" offset="100%"></stop>
        </linearGradient>
        <polygon id="path-13" points="47.447 0.96 0.807 51.397 20.274 51.397 66.913 0.96"></polygon>
        <linearGradient x1="43.592148%" y1="28.8663173%" x2="53.7186947%" y2="62.0808943%" id="linearGradient-15">
            <stop stop-color="#004A80" offset="0%"></stop>
            <stop stop-color="#004A80" offset="13.84%"></stop>
            <stop stop-color="#005D94" offset="28.56%"></stop>
            <stop stop-color="#0075BF" offset="42.47%"></stop>
            <stop stop-color="#0095D0" offset="100%"></stop>
        </linearGradient>
        <path d="M18.282,0.834 L2.913,17.337 L0.059,20.425 C0.485,20.405 10.363,19.967 18.141,21.921 L37.641,0.834 L18.282,0.834 L18.282,0.834 Z" id="path-16"></path>
        <linearGradient x1="46.4985979%" y1="29.1875447%" x2="50.1614542%" y2="50.8855306%" id="linearGradient-18">
            <stop stop-color="#00365D" offset="0%"></stop>
            <stop stop-color="#0083C2" offset="77.48%"></stop>
            <stop stop-color="#0083C2" offset="100%"></stop>
        </linearGradient>
    </defs>
    <g id="Page-1" stroke="none" stroke-width="1" fill="none" fill-rule="evenodd">
        <g id="Z3-Logo">
            <g id="Clipped" transform="translate(59.000000, 31.000000)">
                <mask id="mask-2" fill="white">
                    <use xlink:href="#path-1"></use>
                </mask>
                <g id="SVGID_1_"></g>
                <polygon id="Path" fill="url(#linearGradient-3)" fill-rule="nonzero" mask="url(#mask-2)" points="51.438 -32.56 115.887 66.263 22.268 127.319 -42.182 28.496"></polygon>
            </g>
            <g id="Clipped" transform="translate(14.000000, 0.000000)" fill="#224163" fill-rule="nonzero">
                <polygon id="Path" points="80.126 0.58 21.135 0.58 7.917 14.87 47.447 14.87 0.808 65.306 59.798 65.306 73.017 51.017 33.489 51.017"></polygon>
            </g>
            <g id="Clipped" transform="translate(21.000000, 0.000000)">
                <mask id="mask-5" fill="white">
                    <use xlink:href="#path-4"></use>
                </mask>
                <g id="SVGID_6_"></g>
                <polygon id="Path" fill="url(#linearGradient-6)" fill-rule="nonzero" mask="url(#mask-5)" points="20.465 -31.414 79.475 4.539 53.578 47.045 -5.432 11.092"></polygon>
            </g>
            <g id="Clipped" transform="translate(59.000000, 31.000000)">
                <mask id="mask-8" fill="white">
                    <use xlink:href="#path-7"></use>
                </mask>
                <g id="SVGID_9_"></g>
                <polygon id="Path" fill="url(#linearGradient-9)" fill-rule="nonzero" mask="url(#mask-8)" points="62.613 -24.753 77.962 12.787 11.091 40.13 -4.258 2.59"></polygon>
            </g>
            <g id="Clipped" transform="translate(14.000000, 51.000000)">
                <mask id="mask-11" fill="white">
                    <use xlink:href="#path-10"></use>
                </mask>
                <g id="SVGID_12_"></g>
                <polygon id="Path" fill="url(#linearGradient-12)" fill-rule="nonzero" mask="url(#mask-11)" points="50.05 -33.521 79.672 9.853 23.773 48.027 -5.848 4.653"></polygon>
            </g>
            <g id="Clipped" transform="translate(14.000000, 14.000000)">
                <mask id="mask-14" fill="white">
                    <use xlink:href="#path-13"></use>
                </mask>
                <g id="SVGID_15_"></g>
                <polygon id="Path" fill="url(#linearGradient-15)" fill-rule="nonzero" mask="url(#mask-14)" points="62.107 -16.204 80.009 47.73 5.613 68.561 -12.289 4.627"></polygon>
            </g>
            <g id="Clipped" transform="translate(81.000000, 45.000000)">
                <mask id="mask-17" fill="white">
                    <use xlink:href="#path-16"></use>
                </mask>
                <g id="SVGID_18_"></g>
                <polygon id="Path" fill="url(#linearGradient-18)" fill-rule="nonzero" mask="url(#mask-17)" points="37.12 -3.563 40.109 21.628 0.582 26.318 -2.407 1.127"></polygon>
            </g>
            <g id="Text" transform="translate(0.000000, 69.000000)" fill="#58595B" fill-rule="nonzero">
                <polygon id="Path" points="4.474 15.746 0.719 15.746 0.876 15.016 9.218 15.016 9.062 15.746 5.28 15.746 3.362 24.894 2.542 24.894"></polygon>
                <polygon id="Path" points="16.041 20.039 10.282 20.039 9.419 24.165 15.952 24.165 15.667 24.895 8.442 24.895 10.532 15.017 17.413 15.017 17.256 15.747 11.193 15.747 10.44 19.309 16.198 19.309"></polygon>
                <path d="M19.417,15.016 L20.236,15.016 L19.147,20.158 C20.916,18.884 24.24,16.516 26.358,15.016 L27.57,15.016 L21.673,19.237 L25.784,24.894 L24.753,24.894 L20.986,19.669 L18.961,21.02 L18.147,24.894 L17.327,24.894 L19.417,15.016 Z" id="Path"></path>
                <path d="M26.52,24.895 L28.61,15.017 L29.547,15.017 C30.885,17.477 33.554,22.697 34.117,23.833 L34.145,23.833 C34.377,22.416 34.684,21.007 35.017,19.415 L35.949,15.017 L36.765,15.017 L34.676,24.895 L33.782,24.895 C32.579,22.616 29.734,17.011 29.199,15.904 L29.17,15.904 C28.963,17.203 28.658,18.616 28.285,20.387 L27.336,24.895 L26.52,24.895 Z" id="Path"></path>
                <path d="M47.265,19.274 C47.265,22.265 45.558,25.101 41.79,25.101 C39.088,25.101 37.495,23.235 37.495,20.648 C37.495,17.65 39.47,14.807 43.01,14.807 C45.603,14.808 47.265,16.606 47.265,19.274 M38.36,20.579 C38.36,22.715 39.554,24.374 41.904,24.374 C44.796,24.374 46.401,22.134 46.401,19.328 C46.401,16.93 44.979,15.537 42.871,15.537 C40.279,15.537 38.36,17.723 38.36,20.579" id="Shape"></path>
                <polygon id="Path" points="50.188 15.016 51.006 15.016 49.075 24.164 54.958 24.164 54.685 24.894 48.097 24.894"></polygon>
                <path d="M65.674,19.274 C65.674,22.265 63.967,25.101 60.199,25.101 C57.497,25.101 55.904,23.235 55.904,20.648 C55.904,17.65 57.879,14.807 61.419,14.807 C64.012,14.808 65.674,16.606 65.674,19.274 M56.77,20.579 C56.77,22.715 57.964,24.374 60.314,24.374 C63.206,24.374 64.811,22.134 64.811,19.328 C64.811,16.93 63.389,15.537 61.281,15.537 C58.688,15.537 56.77,17.723 56.77,20.579" id="Shape"></path>
                <path d="M69.54,22.326 C69.126,24.263 68.473,25.089 66.741,25.089 C65.955,25.089 65.575,24.978 65.324,24.909 L65.495,24.206 C65.826,24.302 66.242,24.385 66.739,24.385 C68.239,24.385 68.528,23.275 68.734,22.31 L70.283,15.016 L71.116,15.016 L69.54,22.326 Z" id="Path"></path>
                <path d="M72.418,17.97 L73.183,17.97 L71.714,24.894 L70.95,24.894 L72.418,17.97 Z M73.163,14.435 L73.928,14.435 L73.622,15.896 L72.856,15.896 L73.163,14.435 Z" id="Shape"></path>
                <path d="M13.158,10.86 L13.91,7.287 C13.943,7.123 13.915,7.045 13.846,6.89 L11.302,0.696 L14.665,0.696 C15.131,2.135 15.702,4.028 15.956,5.018 C16.599,4.059 18.042,2.171 19.147,0.696 L22.482,0.696 L17.149,7.222 C17.072,7.314 17.028,7.421 16.979,7.648 L16.305,10.86 L13.158,10.86 Z" id="Path"></path>
                <path d="M23.028,8.915 L21.911,10.86 L18.63,10.86 L24.45,0.696 L28.547,0.696 L30.313,10.86 L27.148,10.86 L26.859,8.915 L23.028,8.915 Z M26.558,6.641 C26.327,5.035 26.156,3.629 26.097,2.788 L26.052,2.788 C25.683,3.657 25,5.04 24.169,6.641 L26.558,6.641 Z" id="Shape"></path>
                <polygon id="Path" points="31.511 8.873 38.104 2.977 32.902 2.977 33.396 0.696 42.555 0.696 42.081 2.898 35.668 8.581 41.454 8.581 40.633 10.859 31.096 10.859"></polygon>
                <polygon id="Path" points="47.521 0.696 45.368 10.86 42.235 10.86 44.388 0.696"></polygon>
                <polygon id="Path" points="49.665 0.696 52.803 0.696 51.129 8.58 56.395 8.58 55.548 10.86 47.512 10.86"></polygon>
                <polygon id="Path" points="62.209 0.696 60.056 10.86 56.923 10.86 59.076 0.696"></polygon>
                <path d="M72.105,7.434 C72.446,5.821 72.923,3.869 73.251,2.676 L73.223,2.676 C72.384,4.667 71.119,7.231 69.422,10.86 L66.819,10.86 C66.757,7.659 66.661,4.711 66.634,2.656 L66.609,2.656 C66.425,3.841 66.128,5.818 65.756,7.552 L65.046,10.86 L62.227,10.86 L64.38,0.696 L68.891,0.696 C68.989,2.906 69.121,5.792 69.071,7.129 L69.09,7.129 C69.675,5.687 70.986,2.983 72.11,0.696 L76.619,0.696 L74.466,10.86 L71.386,10.86 L72.105,7.434 Z" id="Path"></path>
            </g>
        </g>
    </g>
</svg>